<mxfile host="app.diagrams.net" agent="Mozilla/5.0 (Windows NT 10.0; Win64; x64) AppleWebKit/537.36 (KHTML, like Gecko) Chrome/134.0.0.0 Safari/537.36" version="26.1.1">
  <diagram name="Page-1" id="DTqKwG0aDYhdUm66huSe">
    <mxGraphModel dx="2750" dy="1657" grid="1" gridSize="10" guides="1" tooltips="1" connect="1" arrows="1" fold="1" page="1" pageScale="1" pageWidth="850" pageHeight="1100" math="0" shadow="0">
      <root>
        <mxCell id="0" />
        <mxCell id="1" parent="0" />
        <mxCell id="UJrgBtG_IAX48CAi5n5r-1" value="&lt;h1&gt;&lt;b&gt;&lt;u&gt;&lt;font face=&quot;Comic Sans MS&quot;&gt;Qn 1:Hayanju Traders Craft Trading&amp;nbsp; Website:&lt;/font&gt;&lt;/u&gt;&lt;/b&gt;&lt;/h1&gt;" style="text;strokeColor=none;align=center;fillColor=none;html=1;verticalAlign=middle;whiteSpace=wrap;rounded=0;" parent="1" vertex="1">
          <mxGeometry x="-1570" y="-530" width="1590" height="30" as="geometry" />
        </mxCell>
        <mxCell id="UJrgBtG_IAX48CAi5n5r-2" value="Seller" style="rounded=0;whiteSpace=wrap;html=1;" parent="1" vertex="1">
          <mxGeometry x="-1040" y="-360" width="120" height="60" as="geometry" />
        </mxCell>
        <mxCell id="UJrgBtG_IAX48CAi5n5r-3" value="Email" style="ellipse;whiteSpace=wrap;html=1;" parent="1" vertex="1">
          <mxGeometry x="-1290" y="-340" width="120" height="80" as="geometry" />
        </mxCell>
        <mxCell id="UJrgBtG_IAX48CAi5n5r-4" value="Name" style="ellipse;whiteSpace=wrap;html=1;" parent="1" vertex="1">
          <mxGeometry x="-1160" y="-480" width="120" height="80" as="geometry" />
        </mxCell>
        <mxCell id="UJrgBtG_IAX48CAi5n5r-5" value="Postal Address" style="ellipse;whiteSpace=wrap;html=1;" parent="1" vertex="1">
          <mxGeometry x="-890" y="-210" width="120" height="80" as="geometry" />
        </mxCell>
        <mxCell id="UJrgBtG_IAX48CAi5n5r-6" value="Contact" style="ellipse;whiteSpace=wrap;html=1;" parent="1" vertex="1">
          <mxGeometry x="-1160" y="-200" width="120" height="80" as="geometry" />
        </mxCell>
        <mxCell id="UJrgBtG_IAX48CAi5n5r-7" value="&lt;u&gt;Seller ID&lt;/u&gt;" style="ellipse;whiteSpace=wrap;html=1;" parent="1" vertex="1">
          <mxGeometry x="-890" y="-480" width="120" height="80" as="geometry" />
        </mxCell>
        <mxCell id="UJrgBtG_IAX48CAi5n5r-10" value="Sells" style="rhombus;whiteSpace=wrap;html=1;" parent="1" vertex="1">
          <mxGeometry x="-730" y="-370" width="80" height="80" as="geometry" />
        </mxCell>
        <mxCell id="UJrgBtG_IAX48CAi5n5r-11" value="Product" style="rounded=0;whiteSpace=wrap;html=1;" parent="1" vertex="1">
          <mxGeometry x="-450" y="-360" width="120" height="60" as="geometry" />
        </mxCell>
        <mxCell id="UJrgBtG_IAX48CAi5n5r-17" value="Number Available" style="ellipse;whiteSpace=wrap;html=1;" parent="1" vertex="1">
          <mxGeometry x="-520" y="-210" width="120" height="80" as="geometry" />
        </mxCell>
        <mxCell id="UJrgBtG_IAX48CAi5n5r-18" value="Seller ID&lt;div&gt;(&lt;i&gt;Fk)&lt;/i&gt;&lt;/div&gt;" style="ellipse;whiteSpace=wrap;html=1;" parent="1" vertex="1">
          <mxGeometry x="-260" y="-170" width="120" height="80" as="geometry" />
        </mxCell>
        <mxCell id="UJrgBtG_IAX48CAi5n5r-19" value="Price" style="ellipse;whiteSpace=wrap;html=1;" parent="1" vertex="1">
          <mxGeometry x="-150" y="-360" width="120" height="80" as="geometry" />
        </mxCell>
        <mxCell id="UJrgBtG_IAX48CAi5n5r-20" value="Name" style="ellipse;whiteSpace=wrap;html=1;" parent="1" vertex="1">
          <mxGeometry x="-290" y="-510" width="120" height="80" as="geometry" />
        </mxCell>
        <mxCell id="UJrgBtG_IAX48CAi5n5r-21" value="&lt;u&gt;Product ID&lt;/u&gt;" style="ellipse;whiteSpace=wrap;html=1;" parent="1" vertex="1">
          <mxGeometry x="-520" y="-500" width="120" height="80" as="geometry" />
        </mxCell>
        <mxCell id="UJrgBtG_IAX48CAi5n5r-22" value="" style="endArrow=none;html=1;rounded=0;exitX=1;exitY=0.5;exitDx=0;exitDy=0;entryX=0;entryY=0.5;entryDx=0;entryDy=0;" parent="1" source="UJrgBtG_IAX48CAi5n5r-2" target="UJrgBtG_IAX48CAi5n5r-10" edge="1">
          <mxGeometry width="50" height="50" relative="1" as="geometry">
            <mxPoint x="-800" y="-300" as="sourcePoint" />
            <mxPoint x="-750" y="-350" as="targetPoint" />
          </mxGeometry>
        </mxCell>
        <mxCell id="UJrgBtG_IAX48CAi5n5r-23" value="" style="endArrow=none;html=1;rounded=0;exitX=1;exitY=0.5;exitDx=0;exitDy=0;entryX=0;entryY=0.5;entryDx=0;entryDy=0;" parent="1" source="UJrgBtG_IAX48CAi5n5r-10" target="UJrgBtG_IAX48CAi5n5r-11" edge="1">
          <mxGeometry width="50" height="50" relative="1" as="geometry">
            <mxPoint x="-650" y="-300" as="sourcePoint" />
            <mxPoint x="-600" y="-350" as="targetPoint" />
          </mxGeometry>
        </mxCell>
        <mxCell id="UJrgBtG_IAX48CAi5n5r-24" value="" style="endArrow=none;html=1;rounded=0;exitX=1;exitY=0;exitDx=0;exitDy=0;entryX=0;entryY=1;entryDx=0;entryDy=0;" parent="1" source="UJrgBtG_IAX48CAi5n5r-2" target="UJrgBtG_IAX48CAi5n5r-7" edge="1">
          <mxGeometry width="50" height="50" relative="1" as="geometry">
            <mxPoint x="-670" y="-300" as="sourcePoint" />
            <mxPoint x="-620" y="-350" as="targetPoint" />
          </mxGeometry>
        </mxCell>
        <mxCell id="UJrgBtG_IAX48CAi5n5r-25" value="" style="endArrow=none;html=1;rounded=0;exitX=0;exitY=0;exitDx=0;exitDy=0;entryX=0.69;entryY=0.942;entryDx=0;entryDy=0;entryPerimeter=0;" parent="1" source="UJrgBtG_IAX48CAi5n5r-2" target="UJrgBtG_IAX48CAi5n5r-4" edge="1">
          <mxGeometry width="50" height="50" relative="1" as="geometry">
            <mxPoint x="-670" y="-300" as="sourcePoint" />
            <mxPoint x="-620" y="-350" as="targetPoint" />
          </mxGeometry>
        </mxCell>
        <mxCell id="UJrgBtG_IAX48CAi5n5r-26" value="" style="endArrow=none;html=1;rounded=0;exitX=0;exitY=0.5;exitDx=0;exitDy=0;entryX=1;entryY=0.5;entryDx=0;entryDy=0;" parent="1" source="UJrgBtG_IAX48CAi5n5r-2" target="UJrgBtG_IAX48CAi5n5r-3" edge="1">
          <mxGeometry width="50" height="50" relative="1" as="geometry">
            <mxPoint x="-930" y="-300" as="sourcePoint" />
            <mxPoint x="-880" y="-350" as="targetPoint" />
          </mxGeometry>
        </mxCell>
        <mxCell id="UJrgBtG_IAX48CAi5n5r-27" value="" style="endArrow=none;html=1;rounded=0;entryX=0.577;entryY=0.003;entryDx=0;entryDy=0;entryPerimeter=0;exitX=0.083;exitY=1.017;exitDx=0;exitDy=0;exitPerimeter=0;" parent="1" source="UJrgBtG_IAX48CAi5n5r-2" target="UJrgBtG_IAX48CAi5n5r-6" edge="1">
          <mxGeometry width="50" height="50" relative="1" as="geometry">
            <mxPoint x="-1020" y="-290" as="sourcePoint" />
            <mxPoint x="-880" y="-350" as="targetPoint" />
          </mxGeometry>
        </mxCell>
        <mxCell id="UJrgBtG_IAX48CAi5n5r-28" value="" style="endArrow=none;html=1;rounded=0;entryX=0;entryY=0;entryDx=0;entryDy=0;" parent="1" target="UJrgBtG_IAX48CAi5n5r-5" edge="1">
          <mxGeometry width="50" height="50" relative="1" as="geometry">
            <mxPoint x="-930" y="-300" as="sourcePoint" />
            <mxPoint x="-880" y="-350" as="targetPoint" />
          </mxGeometry>
        </mxCell>
        <mxCell id="UJrgBtG_IAX48CAi5n5r-29" value="" style="endArrow=none;html=1;rounded=0;exitX=0.367;exitY=-0.01;exitDx=0;exitDy=0;entryX=0.5;entryY=1;entryDx=0;entryDy=0;exitPerimeter=0;" parent="1" source="UJrgBtG_IAX48CAi5n5r-11" target="UJrgBtG_IAX48CAi5n5r-21" edge="1">
          <mxGeometry width="50" height="50" relative="1" as="geometry">
            <mxPoint x="-610" y="-300" as="sourcePoint" />
            <mxPoint x="-560" y="-350" as="targetPoint" />
          </mxGeometry>
        </mxCell>
        <mxCell id="UJrgBtG_IAX48CAi5n5r-30" value="" style="endArrow=none;html=1;rounded=0;exitX=1;exitY=0.5;exitDx=0;exitDy=0;entryX=0;entryY=0.5;entryDx=0;entryDy=0;" parent="1" source="UJrgBtG_IAX48CAi5n5r-11" target="UJrgBtG_IAX48CAi5n5r-19" edge="1">
          <mxGeometry width="50" height="50" relative="1" as="geometry">
            <mxPoint x="-610" y="-300" as="sourcePoint" />
            <mxPoint x="-560" y="-350" as="targetPoint" />
          </mxGeometry>
        </mxCell>
        <mxCell id="UJrgBtG_IAX48CAi5n5r-31" value="" style="endArrow=none;html=1;rounded=0;exitX=1;exitY=0;exitDx=0;exitDy=0;" parent="1" source="UJrgBtG_IAX48CAi5n5r-11" target="UJrgBtG_IAX48CAi5n5r-20" edge="1">
          <mxGeometry width="50" height="50" relative="1" as="geometry">
            <mxPoint x="-610" y="-300" as="sourcePoint" />
            <mxPoint x="-560" y="-350" as="targetPoint" />
          </mxGeometry>
        </mxCell>
        <mxCell id="UJrgBtG_IAX48CAi5n5r-32" value="" style="endArrow=none;html=1;rounded=0;exitX=1;exitY=1;exitDx=0;exitDy=0;entryX=0.5;entryY=0;entryDx=0;entryDy=0;" parent="1" source="UJrgBtG_IAX48CAi5n5r-11" target="UJrgBtG_IAX48CAi5n5r-18" edge="1">
          <mxGeometry width="50" height="50" relative="1" as="geometry">
            <mxPoint x="-610" y="-300" as="sourcePoint" />
            <mxPoint x="-560" y="-350" as="targetPoint" />
          </mxGeometry>
        </mxCell>
        <mxCell id="UJrgBtG_IAX48CAi5n5r-33" value="" style="endArrow=none;html=1;rounded=0;exitX=0.25;exitY=1;exitDx=0;exitDy=0;" parent="1" edge="1" source="UJrgBtG_IAX48CAi5n5r-11">
          <mxGeometry width="50" height="50" relative="1" as="geometry">
            <mxPoint x="-450" y="-300" as="sourcePoint" />
            <mxPoint x="-450" y="-210" as="targetPoint" />
            <Array as="points">
              <mxPoint x="-450" y="-210" />
            </Array>
          </mxGeometry>
        </mxCell>
        <mxCell id="UJrgBtG_IAX48CAi5n5r-34" value="1" style="text;html=1;align=center;verticalAlign=middle;resizable=0;points=[];autosize=1;strokeColor=none;fillColor=none;" parent="1" vertex="1">
          <mxGeometry x="-835" y="-350" width="30" height="30" as="geometry" />
        </mxCell>
        <mxCell id="UJrgBtG_IAX48CAi5n5r-35" value="M" style="text;html=1;align=center;verticalAlign=middle;resizable=0;points=[];autosize=1;strokeColor=none;fillColor=none;" parent="1" vertex="1">
          <mxGeometry x="-590" y="-350" width="30" height="30" as="geometry" />
        </mxCell>
        <mxCell id="u4x-achaEg82k2jeARJI-1" value="&lt;h1&gt;&lt;u&gt;&lt;font face=&quot;Comic Sans MS&quot;&gt;Qn 2:Bidhi&#39;s Collections Pvt. Ltd. Company Database:&lt;/font&gt;&lt;/u&gt;&lt;/h1&gt;" style="text;html=1;align=center;verticalAlign=middle;resizable=0;points=[];autosize=1;strokeColor=none;fillColor=none;" parent="1" vertex="1">
          <mxGeometry x="-1080" y="-50" width="660" height="80" as="geometry" />
        </mxCell>
        <mxCell id="u4x-achaEg82k2jeARJI-2" value="" style="rounded=0;whiteSpace=wrap;html=1;" parent="1" vertex="1">
          <mxGeometry x="-1120" y="640" width="120" height="60" as="geometry" />
        </mxCell>
        <mxCell id="u4x-achaEg82k2jeARJI-3" value="Departments" style="rounded=0;whiteSpace=wrap;html=1;" parent="1" vertex="1">
          <mxGeometry x="-440" y="200" width="120" height="60" as="geometry" />
        </mxCell>
        <mxCell id="u4x-achaEg82k2jeARJI-4" value="Employees" style="rounded=0;whiteSpace=wrap;html=1;" parent="1" vertex="1">
          <mxGeometry x="-1120" y="200" width="120" height="60" as="geometry" />
        </mxCell>
        <mxCell id="u4x-achaEg82k2jeARJI-5" value="Phone" style="ellipse;whiteSpace=wrap;html=1;" parent="1" vertex="1">
          <mxGeometry x="-1300" y="190" width="120" height="80" as="geometry" />
        </mxCell>
        <mxCell id="u4x-achaEg82k2jeARJI-6" value="Salary" style="ellipse;whiteSpace=wrap;html=1;" parent="1" vertex="1">
          <mxGeometry x="-1040" y="30" width="120" height="80" as="geometry" />
        </mxCell>
        <mxCell id="u4x-achaEg82k2jeARJI-7" value="&lt;u&gt;SSN&lt;/u&gt;" style="ellipse;whiteSpace=wrap;html=1;" parent="1" vertex="1">
          <mxGeometry x="-1240" y="20" width="120" height="80" as="geometry" />
        </mxCell>
        <mxCell id="u4x-achaEg82k2jeARJI-8" value="Budget" style="ellipse;whiteSpace=wrap;html=1;" parent="1" vertex="1">
          <mxGeometry x="-400" y="330" width="120" height="80" as="geometry" />
        </mxCell>
        <mxCell id="u4x-achaEg82k2jeARJI-9" value="Manager SSN&lt;div&gt;&lt;i&gt;(Fk)&lt;/i&gt;&lt;/div&gt;" style="ellipse;whiteSpace=wrap;html=1;" parent="1" vertex="1">
          <mxGeometry x="-160" y="270" width="120" height="80" as="geometry" />
        </mxCell>
        <mxCell id="u4x-achaEg82k2jeARJI-10" value="DNAME" style="ellipse;whiteSpace=wrap;html=1;" parent="1" vertex="1">
          <mxGeometry x="-190" width="120" height="80" as="geometry" />
        </mxCell>
        <mxCell id="u4x-achaEg82k2jeARJI-11" value="&lt;u&gt;DNO&lt;/u&gt;" style="ellipse;whiteSpace=wrap;html=1;" parent="1" vertex="1">
          <mxGeometry x="-420" width="120" height="80" as="geometry" />
        </mxCell>
        <mxCell id="u4x-achaEg82k2jeARJI-12" value="Age" style="ellipse;whiteSpace=wrap;html=1;" parent="1" vertex="1">
          <mxGeometry x="-1120" y="790" width="120" height="80" as="geometry" />
        </mxCell>
        <mxCell id="u4x-achaEg82k2jeARJI-13" value="Parent SSN&lt;div&gt;&lt;i&gt;(Fk)&lt;/i&gt;&lt;/div&gt;" style="ellipse;whiteSpace=wrap;html=1;" parent="1" vertex="1">
          <mxGeometry x="-870" y="640" width="120" height="80" as="geometry" />
        </mxCell>
        <mxCell id="u4x-achaEg82k2jeARJI-14" value="Name" style="ellipse;whiteSpace=wrap;html=1;" parent="1" vertex="1">
          <mxGeometry x="-1360" y="640" width="120" height="80" as="geometry" />
        </mxCell>
        <mxCell id="u4x-achaEg82k2jeARJI-15" value="" style="endArrow=none;html=1;rounded=0;exitX=0.683;exitY=-0.023;exitDx=0;exitDy=0;exitPerimeter=0;" parent="1" source="u4x-achaEg82k2jeARJI-4" target="u4x-achaEg82k2jeARJI-6" edge="1">
          <mxGeometry width="50" height="50" relative="1" as="geometry">
            <mxPoint x="-1070" y="260" as="sourcePoint" />
            <mxPoint x="-1020" y="210" as="targetPoint" />
          </mxGeometry>
        </mxCell>
        <mxCell id="u4x-achaEg82k2jeARJI-16" value="" style="endArrow=none;html=1;rounded=0;exitX=0;exitY=0;exitDx=0;exitDy=0;entryX=0.59;entryY=0.963;entryDx=0;entryDy=0;entryPerimeter=0;" parent="1" source="u4x-achaEg82k2jeARJI-4" target="u4x-achaEg82k2jeARJI-7" edge="1">
          <mxGeometry width="50" height="50" relative="1" as="geometry">
            <mxPoint x="-1070" y="260" as="sourcePoint" />
            <mxPoint x="-1020" y="210" as="targetPoint" />
          </mxGeometry>
        </mxCell>
        <mxCell id="u4x-achaEg82k2jeARJI-17" value="" style="endArrow=none;html=1;rounded=0;exitX=0;exitY=0.75;exitDx=0;exitDy=0;entryX=0.95;entryY=0.688;entryDx=0;entryDy=0;entryPerimeter=0;" parent="1" source="u4x-achaEg82k2jeARJI-4" target="u4x-achaEg82k2jeARJI-5" edge="1">
          <mxGeometry width="50" height="50" relative="1" as="geometry">
            <mxPoint x="-1070" y="260" as="sourcePoint" />
            <mxPoint x="-1020" y="210" as="targetPoint" />
          </mxGeometry>
        </mxCell>
        <mxCell id="u4x-achaEg82k2jeARJI-18" value="" style="endArrow=none;html=1;rounded=0;exitX=0.41;exitY=-0.023;exitDx=0;exitDy=0;exitPerimeter=0;entryX=0.5;entryY=1;entryDx=0;entryDy=0;" parent="1" source="u4x-achaEg82k2jeARJI-3" target="u4x-achaEg82k2jeARJI-11" edge="1">
          <mxGeometry width="50" height="50" relative="1" as="geometry">
            <mxPoint x="-390" y="260" as="sourcePoint" />
            <mxPoint x="-340" y="210" as="targetPoint" />
          </mxGeometry>
        </mxCell>
        <mxCell id="u4x-achaEg82k2jeARJI-19" value="" style="endArrow=none;html=1;rounded=0;exitX=1;exitY=0;exitDx=0;exitDy=0;entryX=0.5;entryY=1;entryDx=0;entryDy=0;" parent="1" source="u4x-achaEg82k2jeARJI-3" target="u4x-achaEg82k2jeARJI-10" edge="1">
          <mxGeometry width="50" height="50" relative="1" as="geometry">
            <mxPoint x="-390" y="260" as="sourcePoint" />
            <mxPoint x="-340" y="210" as="targetPoint" />
          </mxGeometry>
        </mxCell>
        <mxCell id="u4x-achaEg82k2jeARJI-20" value="" style="endArrow=none;html=1;rounded=0;exitX=1.017;exitY=0.63;exitDx=0;exitDy=0;exitPerimeter=0;entryX=0;entryY=0.5;entryDx=0;entryDy=0;" parent="1" source="u4x-achaEg82k2jeARJI-3" target="u4x-achaEg82k2jeARJI-9" edge="1">
          <mxGeometry width="50" height="50" relative="1" as="geometry">
            <mxPoint x="-390" y="260" as="sourcePoint" />
            <mxPoint x="-340" y="210" as="targetPoint" />
          </mxGeometry>
        </mxCell>
        <mxCell id="u4x-achaEg82k2jeARJI-21" value="" style="endArrow=none;html=1;rounded=0;entryX=0.5;entryY=0;entryDx=0;entryDy=0;" parent="1" target="u4x-achaEg82k2jeARJI-8" edge="1">
          <mxGeometry width="50" height="50" relative="1" as="geometry">
            <mxPoint x="-390" y="260" as="sourcePoint" />
            <mxPoint x="-340" y="210" as="targetPoint" />
          </mxGeometry>
        </mxCell>
        <mxCell id="u4x-achaEg82k2jeARJI-22" value="" style="endArrow=none;html=1;rounded=0;exitX=1;exitY=0.75;exitDx=0;exitDy=0;entryX=0;entryY=0.5;entryDx=0;entryDy=0;" parent="1" source="u4x-achaEg82k2jeARJI-2" target="u4x-achaEg82k2jeARJI-13" edge="1">
          <mxGeometry width="50" height="50" relative="1" as="geometry">
            <mxPoint x="-980" y="660" as="sourcePoint" />
            <mxPoint x="-930" y="610" as="targetPoint" />
          </mxGeometry>
        </mxCell>
        <mxCell id="u4x-achaEg82k2jeARJI-23" value="" style="endArrow=none;html=1;rounded=0;exitX=0.5;exitY=1;exitDx=0;exitDy=0;entryX=0.5;entryY=0;entryDx=0;entryDy=0;" parent="1" source="u4x-achaEg82k2jeARJI-2" target="u4x-achaEg82k2jeARJI-12" edge="1">
          <mxGeometry width="50" height="50" relative="1" as="geometry">
            <mxPoint x="-980" y="660" as="sourcePoint" />
            <mxPoint x="-930" y="610" as="targetPoint" />
          </mxGeometry>
        </mxCell>
        <mxCell id="u4x-achaEg82k2jeARJI-25" value="" style="endArrow=none;html=1;rounded=0;exitX=0;exitY=0.75;exitDx=0;exitDy=0;entryX=1;entryY=0.5;entryDx=0;entryDy=0;" parent="1" source="u4x-achaEg82k2jeARJI-2" target="u4x-achaEg82k2jeARJI-14" edge="1">
          <mxGeometry width="50" height="50" relative="1" as="geometry">
            <mxPoint x="-980" y="660" as="sourcePoint" />
            <mxPoint x="-930" y="610" as="targetPoint" />
          </mxGeometry>
        </mxCell>
        <mxCell id="u4x-achaEg82k2jeARJI-27" value="Children" style="rounded=0;whiteSpace=wrap;html=1;" parent="1" vertex="1">
          <mxGeometry x="-1110" y="650" width="100" height="40" as="geometry" />
        </mxCell>
        <mxCell id="u4x-achaEg82k2jeARJI-28" value="Has Children" style="rhombus;whiteSpace=wrap;html=1;" parent="1" vertex="1">
          <mxGeometry x="-1100" y="410" width="80" height="80" as="geometry" />
        </mxCell>
        <mxCell id="u4x-achaEg82k2jeARJI-29" value="Manages" style="rhombus;whiteSpace=wrap;html=1;" parent="1" vertex="1">
          <mxGeometry x="-740" y="270" width="80" height="80" as="geometry" />
        </mxCell>
        <mxCell id="u4x-achaEg82k2jeARJI-30" value="Works In" style="rhombus;whiteSpace=wrap;html=1;" parent="1" vertex="1">
          <mxGeometry x="-740" y="140" width="80" height="80" as="geometry" />
        </mxCell>
        <mxCell id="u4x-achaEg82k2jeARJI-31" value="" style="endArrow=none;html=1;rounded=0;exitX=0.5;exitY=0;exitDx=0;exitDy=0;entryX=0.5;entryY=1;entryDx=0;entryDy=0;" parent="1" source="u4x-achaEg82k2jeARJI-28" target="u4x-achaEg82k2jeARJI-4" edge="1">
          <mxGeometry width="50" height="50" relative="1" as="geometry">
            <mxPoint x="-790" y="460" as="sourcePoint" />
            <mxPoint x="-740" y="410" as="targetPoint" />
          </mxGeometry>
        </mxCell>
        <mxCell id="u4x-achaEg82k2jeARJI-32" value="" style="endArrow=none;html=1;rounded=0;exitX=0.5;exitY=1;exitDx=0;exitDy=0;entryX=0.5;entryY=0;entryDx=0;entryDy=0;" parent="1" source="u4x-achaEg82k2jeARJI-28" target="u4x-achaEg82k2jeARJI-2" edge="1">
          <mxGeometry width="50" height="50" relative="1" as="geometry">
            <mxPoint x="-790" y="460" as="sourcePoint" />
            <mxPoint x="-1060" y="630" as="targetPoint" />
          </mxGeometry>
        </mxCell>
        <mxCell id="u4x-achaEg82k2jeARJI-33" value="" style="endArrow=none;html=1;rounded=0;exitX=1;exitY=0.25;exitDx=0;exitDy=0;entryX=0;entryY=0.5;entryDx=0;entryDy=0;" parent="1" source="u4x-achaEg82k2jeARJI-4" target="u4x-achaEg82k2jeARJI-30" edge="1">
          <mxGeometry width="50" height="50" relative="1" as="geometry">
            <mxPoint x="-790" y="460" as="sourcePoint" />
            <mxPoint x="-740" y="410" as="targetPoint" />
          </mxGeometry>
        </mxCell>
        <mxCell id="u4x-achaEg82k2jeARJI-34" value="" style="endArrow=none;html=1;rounded=0;exitX=1;exitY=0.75;exitDx=0;exitDy=0;entryX=0;entryY=0.5;entryDx=0;entryDy=0;" parent="1" source="u4x-achaEg82k2jeARJI-4" target="u4x-achaEg82k2jeARJI-29" edge="1">
          <mxGeometry width="50" height="50" relative="1" as="geometry">
            <mxPoint x="-790" y="460" as="sourcePoint" />
            <mxPoint x="-740" y="410" as="targetPoint" />
          </mxGeometry>
        </mxCell>
        <mxCell id="u4x-achaEg82k2jeARJI-35" value="" style="endArrow=none;html=1;rounded=0;exitX=1;exitY=0.5;exitDx=0;exitDy=0;entryX=0;entryY=0.25;entryDx=0;entryDy=0;" parent="1" source="u4x-achaEg82k2jeARJI-30" target="u4x-achaEg82k2jeARJI-3" edge="1">
          <mxGeometry width="50" height="50" relative="1" as="geometry">
            <mxPoint x="-790" y="260" as="sourcePoint" />
            <mxPoint x="-740" y="210" as="targetPoint" />
          </mxGeometry>
        </mxCell>
        <mxCell id="u4x-achaEg82k2jeARJI-36" value="" style="endArrow=none;html=1;rounded=0;exitX=1;exitY=0.5;exitDx=0;exitDy=0;entryX=0;entryY=0.75;entryDx=0;entryDy=0;" parent="1" source="u4x-achaEg82k2jeARJI-29" target="u4x-achaEg82k2jeARJI-3" edge="1">
          <mxGeometry width="50" height="50" relative="1" as="geometry">
            <mxPoint x="-790" y="260" as="sourcePoint" />
            <mxPoint x="-740" y="210" as="targetPoint" />
          </mxGeometry>
        </mxCell>
        <mxCell id="u4x-achaEg82k2jeARJI-37" value="M" style="text;html=1;align=center;verticalAlign=middle;resizable=0;points=[];autosize=1;strokeColor=none;fillColor=none;" parent="1" vertex="1">
          <mxGeometry x="-905" y="168" width="30" height="30" as="geometry" />
        </mxCell>
        <mxCell id="u4x-achaEg82k2jeARJI-38" value="1" style="text;html=1;align=center;verticalAlign=middle;resizable=0;points=[];autosize=1;strokeColor=none;fillColor=none;" parent="1" vertex="1">
          <mxGeometry x="-575" y="158" width="30" height="30" as="geometry" />
        </mxCell>
        <mxCell id="u4x-achaEg82k2jeARJI-39" value="1" style="text;html=1;align=center;verticalAlign=middle;resizable=0;points=[];autosize=1;strokeColor=none;fillColor=none;" parent="1" vertex="1">
          <mxGeometry x="-905" y="240" width="30" height="30" as="geometry" />
        </mxCell>
        <mxCell id="u4x-achaEg82k2jeARJI-40" value="1" style="text;html=1;align=center;verticalAlign=middle;resizable=0;points=[];autosize=1;strokeColor=none;fillColor=none;" parent="1" vertex="1">
          <mxGeometry x="-595" y="258" width="30" height="30" as="geometry" />
        </mxCell>
        <mxCell id="u4x-achaEg82k2jeARJI-41" value="1" style="text;html=1;align=center;verticalAlign=middle;resizable=0;points=[];autosize=1;strokeColor=none;fillColor=none;" parent="1" vertex="1">
          <mxGeometry x="-1065" y="328" width="30" height="30" as="geometry" />
        </mxCell>
        <mxCell id="u4x-achaEg82k2jeARJI-42" value="M" style="text;html=1;align=center;verticalAlign=middle;resizable=0;points=[];autosize=1;strokeColor=none;fillColor=none;" parent="1" vertex="1">
          <mxGeometry x="-1065" y="550" width="30" height="30" as="geometry" />
        </mxCell>
        <mxCell id="YXMhL67TUiRT0HnD_9RH-1" value="&lt;h1&gt;&lt;font face=&quot;Comic Sans MS&quot;&gt;&lt;u&gt;Qn 3: EXAM 2011 International Multi-Conference&lt;/u&gt;&lt;/font&gt;&lt;/h1&gt;" style="text;html=1;align=center;verticalAlign=middle;resizable=0;points=[];autosize=1;strokeColor=none;fillColor=none;" vertex="1" parent="1">
          <mxGeometry x="-1085" y="900" width="620" height="80" as="geometry" />
        </mxCell>
        <mxCell id="YXMhL67TUiRT0HnD_9RH-2" value="Meeting Room" style="rounded=0;whiteSpace=wrap;html=1;" vertex="1" parent="1">
          <mxGeometry x="-960" y="1480" width="120" height="60" as="geometry" />
        </mxCell>
        <mxCell id="YXMhL67TUiRT0HnD_9RH-3" value="Participant" style="rounded=0;whiteSpace=wrap;html=1;" vertex="1" parent="1">
          <mxGeometry x="-480" y="1200" width="120" height="60" as="geometry" />
        </mxCell>
        <mxCell id="YXMhL67TUiRT0HnD_9RH-4" value="Workshop" style="rounded=0;whiteSpace=wrap;html=1;" vertex="1" parent="1">
          <mxGeometry x="-960" y="1200" width="120" height="60" as="geometry" />
        </mxCell>
        <mxCell id="YXMhL67TUiRT0HnD_9RH-5" value="Date" style="ellipse;whiteSpace=wrap;html=1;" vertex="1" parent="1">
          <mxGeometry x="-1180" y="1180" width="120" height="80" as="geometry" />
        </mxCell>
        <mxCell id="YXMhL67TUiRT0HnD_9RH-6" value="Name" style="ellipse;whiteSpace=wrap;html=1;" vertex="1" parent="1">
          <mxGeometry x="-840" y="1000" width="120" height="80" as="geometry" />
        </mxCell>
        <mxCell id="YXMhL67TUiRT0HnD_9RH-7" value="&lt;u&gt;Workshop ID&lt;/u&gt;" style="ellipse;whiteSpace=wrap;html=1;" vertex="1" parent="1">
          <mxGeometry x="-1110" y="1000" width="120" height="80" as="geometry" />
        </mxCell>
        <mxCell id="YXMhL67TUiRT0HnD_9RH-8" value="&lt;u&gt;Capacity&amp;nbsp;&lt;/u&gt;&lt;div&gt;&lt;u&gt;&lt;i&gt;(PK)&lt;/i&gt;&lt;br&gt;&lt;/u&gt;&lt;div&gt;&lt;br&gt;&lt;/div&gt;&lt;/div&gt;" style="ellipse;whiteSpace=wrap;html=1;" vertex="1" parent="1">
          <mxGeometry x="-750" y="1590" width="120" height="80" as="geometry" />
        </mxCell>
        <mxCell id="YXMhL67TUiRT0HnD_9RH-9" value="Email" style="ellipse;whiteSpace=wrap;html=1;" vertex="1" parent="1">
          <mxGeometry x="-220" y="1280" width="120" height="80" as="geometry" />
        </mxCell>
        <mxCell id="YXMhL67TUiRT0HnD_9RH-10" value="&lt;u&gt;Participant ID&lt;/u&gt;" style="ellipse;whiteSpace=wrap;html=1;" vertex="1" parent="1">
          <mxGeometry x="-485" y="990" width="120" height="80" as="geometry" />
        </mxCell>
        <mxCell id="YXMhL67TUiRT0HnD_9RH-11" value="Name" style="ellipse;whiteSpace=wrap;html=1;" vertex="1" parent="1">
          <mxGeometry x="-230" y="1030" width="120" height="80" as="geometry" />
        </mxCell>
        <mxCell id="YXMhL67TUiRT0HnD_9RH-12" value="Floor" style="ellipse;whiteSpace=wrap;html=1;" vertex="1" parent="1">
          <mxGeometry x="-1205" y="1590" width="120" height="80" as="geometry" />
        </mxCell>
        <mxCell id="YXMhL67TUiRT0HnD_9RH-13" value="&lt;u&gt;Room Number&lt;/u&gt;&lt;div&gt;&lt;i&gt;&lt;u&gt;(PK)&lt;/u&gt;&lt;/i&gt;&lt;/div&gt;" style="ellipse;whiteSpace=wrap;html=1;" vertex="1" parent="1">
          <mxGeometry x="-960" y="1680" width="120" height="80" as="geometry" />
        </mxCell>
        <mxCell id="YXMhL67TUiRT0HnD_9RH-14" value="Attends" style="rhombus;whiteSpace=wrap;html=1;" vertex="1" parent="1">
          <mxGeometry x="-675" y="1190" width="80" height="80" as="geometry" />
        </mxCell>
        <mxCell id="YXMhL67TUiRT0HnD_9RH-15" value="Allocated&amp;nbsp;&lt;div&gt;To&lt;/div&gt;" style="rhombus;whiteSpace=wrap;html=1;" vertex="1" parent="1">
          <mxGeometry x="-940" y="1320" width="80" height="80" as="geometry" />
        </mxCell>
        <mxCell id="YXMhL67TUiRT0HnD_9RH-16" value="" style="endArrow=none;html=1;rounded=0;exitX=0.75;exitY=0;exitDx=0;exitDy=0;entryX=0.35;entryY=0.992;entryDx=0;entryDy=0;entryPerimeter=0;" edge="1" parent="1" source="YXMhL67TUiRT0HnD_9RH-4" target="YXMhL67TUiRT0HnD_9RH-6">
          <mxGeometry width="50" height="50" relative="1" as="geometry">
            <mxPoint x="-700" y="1200" as="sourcePoint" />
            <mxPoint x="-650" y="1150" as="targetPoint" />
          </mxGeometry>
        </mxCell>
        <mxCell id="YXMhL67TUiRT0HnD_9RH-17" value="" style="endArrow=none;html=1;rounded=0;exitX=0;exitY=0;exitDx=0;exitDy=0;entryX=0.587;entryY=1.042;entryDx=0;entryDy=0;entryPerimeter=0;" edge="1" parent="1" source="YXMhL67TUiRT0HnD_9RH-4" target="YXMhL67TUiRT0HnD_9RH-7">
          <mxGeometry width="50" height="50" relative="1" as="geometry">
            <mxPoint x="-700" y="1200" as="sourcePoint" />
            <mxPoint x="-650" y="1150" as="targetPoint" />
          </mxGeometry>
        </mxCell>
        <mxCell id="YXMhL67TUiRT0HnD_9RH-18" value="" style="endArrow=none;html=1;rounded=0;exitX=0;exitY=0.5;exitDx=0;exitDy=0;entryX=1.01;entryY=0.642;entryDx=0;entryDy=0;entryPerimeter=0;" edge="1" parent="1" source="YXMhL67TUiRT0HnD_9RH-4" target="YXMhL67TUiRT0HnD_9RH-5">
          <mxGeometry width="50" height="50" relative="1" as="geometry">
            <mxPoint x="-700" y="1200" as="sourcePoint" />
            <mxPoint x="-650" y="1150" as="targetPoint" />
          </mxGeometry>
        </mxCell>
        <mxCell id="YXMhL67TUiRT0HnD_9RH-19" value="" style="endArrow=none;html=1;rounded=0;exitX=0.5;exitY=0;exitDx=0;exitDy=0;entryX=0.5;entryY=1;entryDx=0;entryDy=0;" edge="1" parent="1" source="YXMhL67TUiRT0HnD_9RH-3" target="YXMhL67TUiRT0HnD_9RH-10">
          <mxGeometry width="50" height="50" relative="1" as="geometry">
            <mxPoint x="-700" y="1200" as="sourcePoint" />
            <mxPoint x="-650" y="1150" as="targetPoint" />
          </mxGeometry>
        </mxCell>
        <mxCell id="YXMhL67TUiRT0HnD_9RH-20" value="" style="endArrow=none;html=1;rounded=0;exitX=1;exitY=0;exitDx=0;exitDy=0;" edge="1" parent="1" source="YXMhL67TUiRT0HnD_9RH-3" target="YXMhL67TUiRT0HnD_9RH-11">
          <mxGeometry width="50" height="50" relative="1" as="geometry">
            <mxPoint x="-700" y="1200" as="sourcePoint" />
            <mxPoint x="-650" y="1150" as="targetPoint" />
          </mxGeometry>
        </mxCell>
        <mxCell id="YXMhL67TUiRT0HnD_9RH-21" value="" style="endArrow=none;html=1;rounded=0;exitX=1;exitY=1;exitDx=0;exitDy=0;entryX=0.023;entryY=0.422;entryDx=0;entryDy=0;entryPerimeter=0;" edge="1" parent="1" source="YXMhL67TUiRT0HnD_9RH-3" target="YXMhL67TUiRT0HnD_9RH-9">
          <mxGeometry width="50" height="50" relative="1" as="geometry">
            <mxPoint x="-700" y="1200" as="sourcePoint" />
            <mxPoint x="-650" y="1150" as="targetPoint" />
          </mxGeometry>
        </mxCell>
        <mxCell id="YXMhL67TUiRT0HnD_9RH-22" value="" style="endArrow=none;html=1;rounded=0;exitX=1;exitY=1;exitDx=0;exitDy=0;entryX=0.013;entryY=0.337;entryDx=0;entryDy=0;entryPerimeter=0;" edge="1" parent="1" source="YXMhL67TUiRT0HnD_9RH-2" target="YXMhL67TUiRT0HnD_9RH-8">
          <mxGeometry width="50" height="50" relative="1" as="geometry">
            <mxPoint x="-700" y="1400" as="sourcePoint" />
            <mxPoint x="-650" y="1350" as="targetPoint" />
          </mxGeometry>
        </mxCell>
        <mxCell id="YXMhL67TUiRT0HnD_9RH-23" value="" style="endArrow=none;html=1;rounded=0;exitX=0.5;exitY=1;exitDx=0;exitDy=0;entryX=0.5;entryY=0;entryDx=0;entryDy=0;" edge="1" parent="1" source="YXMhL67TUiRT0HnD_9RH-2" target="YXMhL67TUiRT0HnD_9RH-13">
          <mxGeometry width="50" height="50" relative="1" as="geometry">
            <mxPoint x="-700" y="1600" as="sourcePoint" />
            <mxPoint x="-650" y="1550" as="targetPoint" />
          </mxGeometry>
        </mxCell>
        <mxCell id="YXMhL67TUiRT0HnD_9RH-24" value="" style="endArrow=none;html=1;rounded=0;exitX=0;exitY=1;exitDx=0;exitDy=0;entryX=1;entryY=0.5;entryDx=0;entryDy=0;" edge="1" parent="1" source="YXMhL67TUiRT0HnD_9RH-2" target="YXMhL67TUiRT0HnD_9RH-12">
          <mxGeometry width="50" height="50" relative="1" as="geometry">
            <mxPoint x="-700" y="1600" as="sourcePoint" />
            <mxPoint x="-650" y="1550" as="targetPoint" />
          </mxGeometry>
        </mxCell>
        <mxCell id="YXMhL67TUiRT0HnD_9RH-25" value="" style="endArrow=none;html=1;rounded=0;exitX=1;exitY=0.5;exitDx=0;exitDy=0;entryX=0;entryY=0.5;entryDx=0;entryDy=0;" edge="1" parent="1" source="YXMhL67TUiRT0HnD_9RH-4" target="YXMhL67TUiRT0HnD_9RH-14">
          <mxGeometry width="50" height="50" relative="1" as="geometry">
            <mxPoint x="-700" y="1400" as="sourcePoint" />
            <mxPoint x="-650" y="1350" as="targetPoint" />
          </mxGeometry>
        </mxCell>
        <mxCell id="YXMhL67TUiRT0HnD_9RH-26" value="" style="endArrow=none;html=1;rounded=0;exitX=1;exitY=0.5;exitDx=0;exitDy=0;entryX=0;entryY=0.5;entryDx=0;entryDy=0;" edge="1" parent="1" source="YXMhL67TUiRT0HnD_9RH-14" target="YXMhL67TUiRT0HnD_9RH-3">
          <mxGeometry width="50" height="50" relative="1" as="geometry">
            <mxPoint x="-700" y="1400" as="sourcePoint" />
            <mxPoint x="-650" y="1350" as="targetPoint" />
          </mxGeometry>
        </mxCell>
        <mxCell id="YXMhL67TUiRT0HnD_9RH-27" value="" style="endArrow=none;html=1;rounded=0;exitX=0.5;exitY=1;exitDx=0;exitDy=0;entryX=0.5;entryY=0;entryDx=0;entryDy=0;" edge="1" parent="1" source="YXMhL67TUiRT0HnD_9RH-4" target="YXMhL67TUiRT0HnD_9RH-15">
          <mxGeometry width="50" height="50" relative="1" as="geometry">
            <mxPoint x="-700" y="1400" as="sourcePoint" />
            <mxPoint x="-650" y="1350" as="targetPoint" />
          </mxGeometry>
        </mxCell>
        <mxCell id="YXMhL67TUiRT0HnD_9RH-28" value="" style="endArrow=none;html=1;rounded=0;exitX=0.5;exitY=1;exitDx=0;exitDy=0;entryX=0.5;entryY=0;entryDx=0;entryDy=0;" edge="1" parent="1" source="YXMhL67TUiRT0HnD_9RH-15" target="YXMhL67TUiRT0HnD_9RH-2">
          <mxGeometry width="50" height="50" relative="1" as="geometry">
            <mxPoint x="-700" y="1400" as="sourcePoint" />
            <mxPoint x="-650" y="1350" as="targetPoint" />
          </mxGeometry>
        </mxCell>
        <mxCell id="YXMhL67TUiRT0HnD_9RH-29" value="M" style="text;html=1;align=center;verticalAlign=middle;resizable=0;points=[];autosize=1;strokeColor=none;fillColor=none;" vertex="1" parent="1">
          <mxGeometry x="-785" y="1198" width="30" height="30" as="geometry" />
        </mxCell>
        <mxCell id="YXMhL67TUiRT0HnD_9RH-30" value="N" style="text;html=1;align=center;verticalAlign=middle;resizable=0;points=[];autosize=1;strokeColor=none;fillColor=none;" vertex="1" parent="1">
          <mxGeometry x="-545" y="1198" width="30" height="30" as="geometry" />
        </mxCell>
        <mxCell id="YXMhL67TUiRT0HnD_9RH-31" value="1" style="text;html=1;align=center;verticalAlign=middle;resizable=0;points=[];autosize=1;strokeColor=none;fillColor=none;" vertex="1" parent="1">
          <mxGeometry x="-895" y="1288" width="30" height="30" as="geometry" />
        </mxCell>
        <mxCell id="YXMhL67TUiRT0HnD_9RH-32" value="M" style="text;html=1;align=center;verticalAlign=middle;resizable=0;points=[];autosize=1;strokeColor=none;fillColor=none;" vertex="1" parent="1">
          <mxGeometry x="-895" y="1438" width="30" height="30" as="geometry" />
        </mxCell>
        <mxCell id="YXMhL67TUiRT0HnD_9RH-34" value="&lt;h1&gt;&lt;font face=&quot;Comic Sans MS&quot;&gt;&lt;u&gt;Qn 4: Sujan&#39;s Soccer Teams and Matches&lt;/u&gt;&lt;/font&gt;&lt;/h1&gt;" style="text;html=1;align=center;verticalAlign=middle;resizable=0;points=[];autosize=1;strokeColor=none;fillColor=none;" vertex="1" parent="1">
          <mxGeometry x="-1070" y="1820" width="520" height="80" as="geometry" />
        </mxCell>
        <mxCell id="YXMhL67TUiRT0HnD_9RH-35" value="Team" style="rounded=0;whiteSpace=wrap;html=1;" vertex="1" parent="1">
          <mxGeometry x="-960" y="2040" width="120" height="60" as="geometry" />
        </mxCell>
        <mxCell id="YXMhL67TUiRT0HnD_9RH-36" value="Player" style="rounded=0;whiteSpace=wrap;html=1;" vertex="1" parent="1">
          <mxGeometry x="-440" y="2040" width="120" height="60" as="geometry" />
        </mxCell>
        <mxCell id="YXMhL67TUiRT0HnD_9RH-37" value="Match" style="rounded=0;whiteSpace=wrap;html=1;" vertex="1" parent="1">
          <mxGeometry x="-720" y="2240" width="120" height="60" as="geometry" />
        </mxCell>
        <mxCell id="YXMhL67TUiRT0HnD_9RH-38" value="Refree" style="rounded=0;whiteSpace=wrap;html=1;" vertex="1" parent="1">
          <mxGeometry x="-720" y="2560" width="120" height="60" as="geometry" />
        </mxCell>
        <mxCell id="YXMhL67TUiRT0HnD_9RH-39" value="Main Stadium" style="ellipse;whiteSpace=wrap;html=1;" vertex="1" parent="1">
          <mxGeometry x="-770" y="1960" width="120" height="80" as="geometry" />
        </mxCell>
        <mxCell id="YXMhL67TUiRT0HnD_9RH-40" value="City" style="ellipse;whiteSpace=wrap;html=1;" vertex="1" parent="1">
          <mxGeometry x="-1160" y="2030" width="120" height="80" as="geometry" />
        </mxCell>
        <mxCell id="YXMhL67TUiRT0HnD_9RH-41" value="Name" style="ellipse;whiteSpace=wrap;html=1;" vertex="1" parent="1">
          <mxGeometry x="-910" y="1890" width="120" height="80" as="geometry" />
        </mxCell>
        <mxCell id="YXMhL67TUiRT0HnD_9RH-42" value="&lt;u&gt;Team ID&lt;/u&gt;" style="ellipse;whiteSpace=wrap;html=1;" vertex="1" parent="1">
          <mxGeometry x="-1070" y="1900" width="120" height="80" as="geometry" />
        </mxCell>
        <mxCell id="YXMhL67TUiRT0HnD_9RH-43" value="Name" style="ellipse;whiteSpace=wrap;html=1;" vertex="1" parent="1">
          <mxGeometry x="-390" y="1840" width="120" height="80" as="geometry" />
        </mxCell>
        <mxCell id="YXMhL67TUiRT0HnD_9RH-44" value="Shirt No." style="ellipse;whiteSpace=wrap;html=1;" vertex="1" parent="1">
          <mxGeometry x="-230" y="2190" width="120" height="80" as="geometry" />
        </mxCell>
        <mxCell id="YXMhL67TUiRT0HnD_9RH-45" value="Team ID&lt;div&gt;&lt;i&gt;(FK)&lt;/i&gt;&lt;/div&gt;" style="ellipse;whiteSpace=wrap;html=1;" vertex="1" parent="1">
          <mxGeometry x="-160" y="2070" width="120" height="80" as="geometry" />
        </mxCell>
        <mxCell id="YXMhL67TUiRT0HnD_9RH-46" value="Start Year" style="ellipse;whiteSpace=wrap;html=1;" vertex="1" parent="1">
          <mxGeometry x="-160" y="1950" width="120" height="80" as="geometry" />
        </mxCell>
        <mxCell id="YXMhL67TUiRT0HnD_9RH-47" value="DOB" style="ellipse;whiteSpace=wrap;html=1;" vertex="1" parent="1">
          <mxGeometry x="-230" y="1810" width="120" height="80" as="geometry" />
        </mxCell>
        <mxCell id="YXMhL67TUiRT0HnD_9RH-48" value="&lt;u&gt;Player ID&lt;/u&gt;" style="ellipse;whiteSpace=wrap;html=1;" vertex="1" parent="1">
          <mxGeometry x="-550" y="1890" width="120" height="80" as="geometry" />
        </mxCell>
        <mxCell id="YXMhL67TUiRT0HnD_9RH-49" value="Guest Team ID&lt;div&gt;&lt;i&gt;(FK)&lt;/i&gt;&lt;/div&gt;" style="ellipse;whiteSpace=wrap;html=1;" vertex="1" parent="1">
          <mxGeometry x="-500" y="2400" width="120" height="80" as="geometry" />
        </mxCell>
        <mxCell id="YXMhL67TUiRT0HnD_9RH-50" value="Host Team ID&lt;div&gt;&lt;i&gt;(FK)&lt;/i&gt;&lt;/div&gt;" style="ellipse;whiteSpace=wrap;html=1;" vertex="1" parent="1">
          <mxGeometry x="-500" y="2320" width="120" height="80" as="geometry" />
        </mxCell>
        <mxCell id="YXMhL67TUiRT0HnD_9RH-51" value="&lt;u&gt;Match ID&lt;/u&gt;" style="ellipse;whiteSpace=wrap;html=1;" vertex="1" parent="1">
          <mxGeometry x="-895" y="2370" width="120" height="80" as="geometry" />
        </mxCell>
        <mxCell id="YXMhL67TUiRT0HnD_9RH-52" value="Result" style="ellipse;whiteSpace=wrap;html=1;" vertex="1" parent="1">
          <mxGeometry x="-940" y="2220" width="120" height="80" as="geometry" />
        </mxCell>
        <mxCell id="YXMhL67TUiRT0HnD_9RH-53" value="Date" style="ellipse;whiteSpace=wrap;html=1;" vertex="1" parent="1">
          <mxGeometry x="-575" y="2140" width="120" height="80" as="geometry" />
        </mxCell>
        <mxCell id="YXMhL67TUiRT0HnD_9RH-54" value="Years of Experience" style="ellipse;whiteSpace=wrap;html=1;" vertex="1" parent="1">
          <mxGeometry x="-490" y="2600" width="120" height="80" as="geometry" />
        </mxCell>
        <mxCell id="YXMhL67TUiRT0HnD_9RH-55" value="DOB" style="ellipse;whiteSpace=wrap;html=1;" vertex="1" parent="1">
          <mxGeometry x="-585" y="2750" width="120" height="80" as="geometry" />
        </mxCell>
        <mxCell id="YXMhL67TUiRT0HnD_9RH-56" value="Name" style="ellipse;whiteSpace=wrap;html=1;rotation=-1;" vertex="1" parent="1">
          <mxGeometry x="-820" y="2750" width="120" height="80" as="geometry" />
        </mxCell>
        <mxCell id="YXMhL67TUiRT0HnD_9RH-57" value="&lt;u&gt;Refree ID&lt;/u&gt;" style="ellipse;whiteSpace=wrap;html=1;" vertex="1" parent="1">
          <mxGeometry x="-940" y="2600" width="120" height="80" as="geometry" />
        </mxCell>
        <mxCell id="YXMhL67TUiRT0HnD_9RH-58" value="" style="endArrow=none;html=1;rounded=0;exitX=1;exitY=0.25;exitDx=0;exitDy=0;entryX=0.047;entryY=0.692;entryDx=0;entryDy=0;entryPerimeter=0;" edge="1" parent="1" source="YXMhL67TUiRT0HnD_9RH-35" target="YXMhL67TUiRT0HnD_9RH-39">
          <mxGeometry width="50" height="50" relative="1" as="geometry">
            <mxPoint x="-610" y="2120" as="sourcePoint" />
            <mxPoint x="-560" y="2070" as="targetPoint" />
          </mxGeometry>
        </mxCell>
        <mxCell id="YXMhL67TUiRT0HnD_9RH-59" value="" style="endArrow=none;html=1;rounded=0;exitX=0.65;exitY=0.043;exitDx=0;exitDy=0;exitPerimeter=0;entryX=0.5;entryY=1;entryDx=0;entryDy=0;" edge="1" parent="1" source="YXMhL67TUiRT0HnD_9RH-35" target="YXMhL67TUiRT0HnD_9RH-41">
          <mxGeometry width="50" height="50" relative="1" as="geometry">
            <mxPoint x="-610" y="2120" as="sourcePoint" />
            <mxPoint x="-560" y="2070" as="targetPoint" />
          </mxGeometry>
        </mxCell>
        <mxCell id="YXMhL67TUiRT0HnD_9RH-60" value="" style="endArrow=none;html=1;rounded=0;exitX=0.083;exitY=0;exitDx=0;exitDy=0;exitPerimeter=0;entryX=0.627;entryY=1.012;entryDx=0;entryDy=0;entryPerimeter=0;" edge="1" parent="1" source="YXMhL67TUiRT0HnD_9RH-35" target="YXMhL67TUiRT0HnD_9RH-42">
          <mxGeometry width="50" height="50" relative="1" as="geometry">
            <mxPoint x="-610" y="2120" as="sourcePoint" />
            <mxPoint x="-560" y="2070" as="targetPoint" />
          </mxGeometry>
        </mxCell>
        <mxCell id="YXMhL67TUiRT0HnD_9RH-61" value="" style="endArrow=none;html=1;rounded=0;exitX=0;exitY=0.5;exitDx=0;exitDy=0;entryX=1;entryY=0.5;entryDx=0;entryDy=0;" edge="1" parent="1" source="YXMhL67TUiRT0HnD_9RH-35" target="YXMhL67TUiRT0HnD_9RH-40">
          <mxGeometry width="50" height="50" relative="1" as="geometry">
            <mxPoint x="-610" y="2120" as="sourcePoint" />
            <mxPoint x="-560" y="2070" as="targetPoint" />
          </mxGeometry>
        </mxCell>
        <mxCell id="YXMhL67TUiRT0HnD_9RH-62" value="" style="endArrow=none;html=1;rounded=0;exitX=0.17;exitY=0.043;exitDx=0;exitDy=0;exitPerimeter=0;entryX=0.62;entryY=1.017;entryDx=0;entryDy=0;entryPerimeter=0;" edge="1" parent="1" source="YXMhL67TUiRT0HnD_9RH-36" target="YXMhL67TUiRT0HnD_9RH-48">
          <mxGeometry width="50" height="50" relative="1" as="geometry">
            <mxPoint x="-610" y="2120" as="sourcePoint" />
            <mxPoint x="-560" y="2070" as="targetPoint" />
          </mxGeometry>
        </mxCell>
        <mxCell id="YXMhL67TUiRT0HnD_9RH-63" value="" style="endArrow=none;html=1;rounded=0;exitX=0.75;exitY=0;exitDx=0;exitDy=0;entryX=0.5;entryY=1;entryDx=0;entryDy=0;" edge="1" parent="1" source="YXMhL67TUiRT0HnD_9RH-36" target="YXMhL67TUiRT0HnD_9RH-43">
          <mxGeometry width="50" height="50" relative="1" as="geometry">
            <mxPoint x="-610" y="2120" as="sourcePoint" />
            <mxPoint x="-560" y="2070" as="targetPoint" />
          </mxGeometry>
        </mxCell>
        <mxCell id="YXMhL67TUiRT0HnD_9RH-64" value="" style="endArrow=none;html=1;rounded=0;exitX=1;exitY=0.25;exitDx=0;exitDy=0;entryX=0.213;entryY=0.907;entryDx=0;entryDy=0;entryPerimeter=0;" edge="1" parent="1" source="YXMhL67TUiRT0HnD_9RH-36" target="YXMhL67TUiRT0HnD_9RH-47">
          <mxGeometry width="50" height="50" relative="1" as="geometry">
            <mxPoint x="-610" y="2120" as="sourcePoint" />
            <mxPoint x="-560" y="2070" as="targetPoint" />
          </mxGeometry>
        </mxCell>
        <mxCell id="YXMhL67TUiRT0HnD_9RH-65" value="" style="endArrow=none;html=1;rounded=0;exitX=1;exitY=0.5;exitDx=0;exitDy=0;entryX=0.017;entryY=0.647;entryDx=0;entryDy=0;entryPerimeter=0;" edge="1" parent="1" source="YXMhL67TUiRT0HnD_9RH-36" target="YXMhL67TUiRT0HnD_9RH-46">
          <mxGeometry width="50" height="50" relative="1" as="geometry">
            <mxPoint x="-610" y="2120" as="sourcePoint" />
            <mxPoint x="-560" y="2070" as="targetPoint" />
          </mxGeometry>
        </mxCell>
        <mxCell id="YXMhL67TUiRT0HnD_9RH-66" value="" style="endArrow=none;html=1;rounded=0;exitX=1;exitY=0.75;exitDx=0;exitDy=0;entryX=0;entryY=0.5;entryDx=0;entryDy=0;" edge="1" parent="1" source="YXMhL67TUiRT0HnD_9RH-36" target="YXMhL67TUiRT0HnD_9RH-45">
          <mxGeometry width="50" height="50" relative="1" as="geometry">
            <mxPoint x="-610" y="2120" as="sourcePoint" />
            <mxPoint x="-560" y="2070" as="targetPoint" />
          </mxGeometry>
        </mxCell>
        <mxCell id="YXMhL67TUiRT0HnD_9RH-67" value="" style="endArrow=none;html=1;rounded=0;exitX=0.85;exitY=1.03;exitDx=0;exitDy=0;exitPerimeter=0;entryX=0;entryY=0;entryDx=0;entryDy=0;" edge="1" parent="1" source="YXMhL67TUiRT0HnD_9RH-36" target="YXMhL67TUiRT0HnD_9RH-44">
          <mxGeometry width="50" height="50" relative="1" as="geometry">
            <mxPoint x="-610" y="2120" as="sourcePoint" />
            <mxPoint x="-560" y="2070" as="targetPoint" />
          </mxGeometry>
        </mxCell>
        <mxCell id="YXMhL67TUiRT0HnD_9RH-68" value="" style="endArrow=none;html=1;rounded=0;exitX=1;exitY=0;exitDx=0;exitDy=0;entryX=0;entryY=1;entryDx=0;entryDy=0;" edge="1" parent="1" source="YXMhL67TUiRT0HnD_9RH-37" target="YXMhL67TUiRT0HnD_9RH-53">
          <mxGeometry width="50" height="50" relative="1" as="geometry">
            <mxPoint x="-610" y="2220" as="sourcePoint" />
            <mxPoint x="-560" y="2170" as="targetPoint" />
          </mxGeometry>
        </mxCell>
        <mxCell id="YXMhL67TUiRT0HnD_9RH-69" value="" style="endArrow=none;html=1;rounded=0;exitX=1;exitY=1;exitDx=0;exitDy=0;entryX=0;entryY=0.5;entryDx=0;entryDy=0;" edge="1" parent="1" source="YXMhL67TUiRT0HnD_9RH-37" target="YXMhL67TUiRT0HnD_9RH-50">
          <mxGeometry width="50" height="50" relative="1" as="geometry">
            <mxPoint x="-610" y="2220" as="sourcePoint" />
            <mxPoint x="-560" y="2170" as="targetPoint" />
          </mxGeometry>
        </mxCell>
        <mxCell id="YXMhL67TUiRT0HnD_9RH-70" value="" style="endArrow=none;html=1;rounded=0;exitX=0.75;exitY=1;exitDx=0;exitDy=0;entryX=0.05;entryY=0.372;entryDx=0;entryDy=0;entryPerimeter=0;" edge="1" parent="1" source="YXMhL67TUiRT0HnD_9RH-37" target="YXMhL67TUiRT0HnD_9RH-49">
          <mxGeometry width="50" height="50" relative="1" as="geometry">
            <mxPoint x="-610" y="2220" as="sourcePoint" />
            <mxPoint x="-560" y="2170" as="targetPoint" />
          </mxGeometry>
        </mxCell>
        <mxCell id="YXMhL67TUiRT0HnD_9RH-71" value="" style="endArrow=none;html=1;rounded=0;exitX=0;exitY=1;exitDx=0;exitDy=0;entryX=1;entryY=0;entryDx=0;entryDy=0;" edge="1" parent="1" source="YXMhL67TUiRT0HnD_9RH-37" target="YXMhL67TUiRT0HnD_9RH-51">
          <mxGeometry width="50" height="50" relative="1" as="geometry">
            <mxPoint x="-610" y="2420" as="sourcePoint" />
            <mxPoint x="-560" y="2370" as="targetPoint" />
          </mxGeometry>
        </mxCell>
        <mxCell id="YXMhL67TUiRT0HnD_9RH-72" value="" style="endArrow=none;html=1;rounded=0;exitX=0;exitY=0.5;exitDx=0;exitDy=0;entryX=1;entryY=0.5;entryDx=0;entryDy=0;" edge="1" parent="1" source="YXMhL67TUiRT0HnD_9RH-37" target="YXMhL67TUiRT0HnD_9RH-52">
          <mxGeometry width="50" height="50" relative="1" as="geometry">
            <mxPoint x="-610" y="2420" as="sourcePoint" />
            <mxPoint x="-560" y="2370" as="targetPoint" />
          </mxGeometry>
        </mxCell>
        <mxCell id="YXMhL67TUiRT0HnD_9RH-73" value="" style="endArrow=none;html=1;rounded=0;exitX=0;exitY=0.75;exitDx=0;exitDy=0;entryX=1;entryY=0.5;entryDx=0;entryDy=0;" edge="1" parent="1" source="YXMhL67TUiRT0HnD_9RH-38" target="YXMhL67TUiRT0HnD_9RH-57">
          <mxGeometry width="50" height="50" relative="1" as="geometry">
            <mxPoint x="-610" y="2620" as="sourcePoint" />
            <mxPoint x="-560" y="2570" as="targetPoint" />
          </mxGeometry>
        </mxCell>
        <mxCell id="YXMhL67TUiRT0HnD_9RH-74" value="" style="endArrow=none;html=1;rounded=0;exitX=0.25;exitY=1;exitDx=0;exitDy=0;entryX=0.622;entryY=0.021;entryDx=0;entryDy=0;entryPerimeter=0;" edge="1" parent="1" source="YXMhL67TUiRT0HnD_9RH-38" target="YXMhL67TUiRT0HnD_9RH-56">
          <mxGeometry width="50" height="50" relative="1" as="geometry">
            <mxPoint x="-610" y="2620" as="sourcePoint" />
            <mxPoint x="-560" y="2570" as="targetPoint" />
          </mxGeometry>
        </mxCell>
        <mxCell id="YXMhL67TUiRT0HnD_9RH-75" value="" style="endArrow=none;html=1;rounded=0;entryX=0.438;entryY=0.027;entryDx=0;entryDy=0;entryPerimeter=0;" edge="1" parent="1" target="YXMhL67TUiRT0HnD_9RH-55">
          <mxGeometry width="50" height="50" relative="1" as="geometry">
            <mxPoint x="-610" y="2620" as="sourcePoint" />
            <mxPoint x="-560" y="2570" as="targetPoint" />
          </mxGeometry>
        </mxCell>
        <mxCell id="YXMhL67TUiRT0HnD_9RH-76" value="" style="endArrow=none;html=1;rounded=0;exitX=1;exitY=0.5;exitDx=0;exitDy=0;entryX=0.027;entryY=0.373;entryDx=0;entryDy=0;entryPerimeter=0;" edge="1" parent="1" source="YXMhL67TUiRT0HnD_9RH-38" target="YXMhL67TUiRT0HnD_9RH-54">
          <mxGeometry width="50" height="50" relative="1" as="geometry">
            <mxPoint x="-610" y="2620" as="sourcePoint" />
            <mxPoint x="-560" y="2570" as="targetPoint" />
          </mxGeometry>
        </mxCell>
        <mxCell id="YXMhL67TUiRT0HnD_9RH-77" value="Substitute" style="rhombus;whiteSpace=wrap;html=1;" vertex="1" parent="1">
          <mxGeometry x="-410" y="2220" width="80" height="80" as="geometry" />
        </mxCell>
        <mxCell id="YXMhL67TUiRT0HnD_9RH-78" value="" style="endArrow=none;html=1;rounded=0;exitX=0.997;exitY=0.39;exitDx=0;exitDy=0;entryX=0;entryY=0.5;entryDx=0;entryDy=0;exitPerimeter=0;" edge="1" parent="1" source="YXMhL67TUiRT0HnD_9RH-37" target="YXMhL67TUiRT0HnD_9RH-77">
          <mxGeometry width="50" height="50" relative="1" as="geometry">
            <mxPoint x="-610" y="2120" as="sourcePoint" />
            <mxPoint x="-560" y="2070" as="targetPoint" />
          </mxGeometry>
        </mxCell>
        <mxCell id="YXMhL67TUiRT0HnD_9RH-79" value="" style="endArrow=none;html=1;rounded=0;exitX=0.5;exitY=0;exitDx=0;exitDy=0;entryX=0.577;entryY=1.017;entryDx=0;entryDy=0;entryPerimeter=0;" edge="1" parent="1" source="YXMhL67TUiRT0HnD_9RH-77" target="YXMhL67TUiRT0HnD_9RH-36">
          <mxGeometry width="50" height="50" relative="1" as="geometry">
            <mxPoint x="-610" y="2120" as="sourcePoint" />
            <mxPoint x="-560" y="2070" as="targetPoint" />
          </mxGeometry>
        </mxCell>
        <mxCell id="YXMhL67TUiRT0HnD_9RH-80" value="Refrees" style="rhombus;whiteSpace=wrap;html=1;" vertex="1" parent="1">
          <mxGeometry x="-700" y="2390" width="80" height="80" as="geometry" />
        </mxCell>
        <mxCell id="YXMhL67TUiRT0HnD_9RH-81" value="" style="endArrow=none;html=1;rounded=0;exitX=0.5;exitY=1;exitDx=0;exitDy=0;entryX=0.5;entryY=0;entryDx=0;entryDy=0;" edge="1" parent="1" source="YXMhL67TUiRT0HnD_9RH-80" target="YXMhL67TUiRT0HnD_9RH-38">
          <mxGeometry width="50" height="50" relative="1" as="geometry">
            <mxPoint x="-610" y="2520" as="sourcePoint" />
            <mxPoint x="-560" y="2470" as="targetPoint" />
          </mxGeometry>
        </mxCell>
        <mxCell id="YXMhL67TUiRT0HnD_9RH-82" value="" style="endArrow=none;html=1;rounded=0;exitX=0.5;exitY=0;exitDx=0;exitDy=0;entryX=0.5;entryY=1;entryDx=0;entryDy=0;" edge="1" parent="1" source="YXMhL67TUiRT0HnD_9RH-80" target="YXMhL67TUiRT0HnD_9RH-37">
          <mxGeometry width="50" height="50" relative="1" as="geometry">
            <mxPoint x="-610" y="2520" as="sourcePoint" />
            <mxPoint x="-560" y="2470" as="targetPoint" />
          </mxGeometry>
        </mxCell>
        <mxCell id="YXMhL67TUiRT0HnD_9RH-83" value="&lt;div&gt;&lt;br&gt;&lt;/div&gt;Participates&lt;div&gt;In&lt;/div&gt;" style="rhombus;whiteSpace=wrap;html=1;" vertex="1" parent="1">
          <mxGeometry x="-700" y="2040" width="80" height="80" as="geometry" />
        </mxCell>
        <mxCell id="YXMhL67TUiRT0HnD_9RH-84" value="" style="endArrow=none;html=1;rounded=0;exitX=0.5;exitY=1;exitDx=0;exitDy=0;entryX=0.5;entryY=0;entryDx=0;entryDy=0;" edge="1" parent="1" source="YXMhL67TUiRT0HnD_9RH-83" target="YXMhL67TUiRT0HnD_9RH-37">
          <mxGeometry width="50" height="50" relative="1" as="geometry">
            <mxPoint x="-610" y="2120" as="sourcePoint" />
            <mxPoint x="-560" y="2070" as="targetPoint" />
          </mxGeometry>
        </mxCell>
        <mxCell id="YXMhL67TUiRT0HnD_9RH-85" value="" style="endArrow=none;html=1;rounded=0;exitX=1;exitY=0.5;exitDx=0;exitDy=0;entryX=-0.017;entryY=0.63;entryDx=0;entryDy=0;entryPerimeter=0;" edge="1" parent="1" source="YXMhL67TUiRT0HnD_9RH-83" target="YXMhL67TUiRT0HnD_9RH-36">
          <mxGeometry width="50" height="50" relative="1" as="geometry">
            <mxPoint x="-610" y="2120" as="sourcePoint" />
            <mxPoint x="-560" y="2070" as="targetPoint" />
          </mxGeometry>
        </mxCell>
        <mxCell id="YXMhL67TUiRT0HnD_9RH-86" value="Plays" style="rhombus;whiteSpace=wrap;html=1;rotation=30;" vertex="1" parent="1">
          <mxGeometry x="-835" y="2140" width="80" height="80" as="geometry" />
        </mxCell>
        <mxCell id="YXMhL67TUiRT0HnD_9RH-87" value="" style="endArrow=none;html=1;rounded=0;exitX=1;exitY=0.5;exitDx=0;exitDy=0;entryX=0;entryY=0;entryDx=0;entryDy=0;" edge="1" parent="1" source="YXMhL67TUiRT0HnD_9RH-86" target="YXMhL67TUiRT0HnD_9RH-37">
          <mxGeometry width="50" height="50" relative="1" as="geometry">
            <mxPoint x="-610" y="2120" as="sourcePoint" />
            <mxPoint x="-560" y="2070" as="targetPoint" />
          </mxGeometry>
        </mxCell>
        <mxCell id="YXMhL67TUiRT0HnD_9RH-88" value="" style="endArrow=none;html=1;rounded=0;exitX=0;exitY=0.5;exitDx=0;exitDy=0;entryX=0.5;entryY=1;entryDx=0;entryDy=0;" edge="1" parent="1" source="YXMhL67TUiRT0HnD_9RH-86" target="YXMhL67TUiRT0HnD_9RH-35">
          <mxGeometry width="50" height="50" relative="1" as="geometry">
            <mxPoint x="-610" y="2120" as="sourcePoint" />
            <mxPoint x="-560" y="2070" as="targetPoint" />
          </mxGeometry>
        </mxCell>
        <mxCell id="YXMhL67TUiRT0HnD_9RH-89" value="1" style="text;html=1;align=center;verticalAlign=middle;resizable=0;points=[];autosize=1;strokeColor=none;fillColor=none;rotation=55;" vertex="1" parent="1">
          <mxGeometry x="-860" y="2120" width="30" height="30" as="geometry" />
        </mxCell>
        <mxCell id="YXMhL67TUiRT0HnD_9RH-90" value="M" style="text;html=1;align=center;verticalAlign=middle;resizable=0;points=[];autosize=1;strokeColor=none;fillColor=none;rotation=40;" vertex="1" parent="1">
          <mxGeometry x="-750" y="2200" width="30" height="30" as="geometry" />
        </mxCell>
        <mxCell id="YXMhL67TUiRT0HnD_9RH-91" value="M" style="text;html=1;align=center;verticalAlign=middle;resizable=0;points=[];autosize=1;strokeColor=none;fillColor=none;" vertex="1" parent="1">
          <mxGeometry x="-665" y="2158" width="30" height="30" as="geometry" />
        </mxCell>
        <mxCell id="YXMhL67TUiRT0HnD_9RH-92" value="N" style="text;html=1;align=center;verticalAlign=middle;resizable=0;points=[];autosize=1;strokeColor=none;fillColor=none;" vertex="1" parent="1">
          <mxGeometry x="-555" y="2048" width="30" height="30" as="geometry" />
        </mxCell>
        <mxCell id="YXMhL67TUiRT0HnD_9RH-93" value="1" style="text;html=1;align=center;verticalAlign=middle;resizable=0;points=[];autosize=1;strokeColor=none;fillColor=none;" vertex="1" parent="1">
          <mxGeometry x="-665" y="2348" width="30" height="30" as="geometry" />
        </mxCell>
        <mxCell id="YXMhL67TUiRT0HnD_9RH-94" value="M" style="text;html=1;align=center;verticalAlign=middle;resizable=0;points=[];autosize=1;strokeColor=none;fillColor=none;" vertex="1" parent="1">
          <mxGeometry x="-660" y="2498" width="30" height="30" as="geometry" />
        </mxCell>
        <mxCell id="YXMhL67TUiRT0HnD_9RH-95" value="M" style="text;html=1;align=center;verticalAlign=middle;resizable=0;points=[];autosize=1;strokeColor=none;fillColor=none;" vertex="1" parent="1">
          <mxGeometry x="-495" y="2228" width="30" height="30" as="geometry" />
        </mxCell>
        <mxCell id="YXMhL67TUiRT0HnD_9RH-96" value="N" style="text;html=1;align=center;verticalAlign=middle;resizable=0;points=[];autosize=1;strokeColor=none;fillColor=none;" vertex="1" parent="1">
          <mxGeometry x="-395" y="2148" width="30" height="30" as="geometry" />
        </mxCell>
      </root>
    </mxGraphModel>
  </diagram>
</mxfile>
